<?xml version="1.0" standalone="no"?>
<!DOCTYPE svg PUBLIC "-//W3C//DTD SVG 20010904//EN"
 "http://www.w3.org/TR/2001/REC-SVG-20010904/DTD/svg10.dtd">
<svg version="1.0" xmlns="http://www.w3.org/2000/svg"
 width="1760.000000pt" height="1760.000000pt" viewBox="0 0 1760.000000 1760.000000"
 preserveAspectRatio="xMidYMid meet">
<metadata>
Created by potrace 1.14, written by Peter Selinger 2001-2017
</metadata>
<g transform="translate(0.000000,1760.000000) scale(0.100000,-0.100000)"
fill="#000000" stroke="none">
<path d="M8614 13432 c-22 -9 -48 -21 -58 -28 -18 -12 -197 -181 -376 -354
-105 -101 -450 -434 -525 -505 -33 -31 -148 -141 -255 -245 -107 -103 -213
-205 -235 -226 -81 -77 -99 -116 -98 -214 0 -64 23 -115 78 -174 38 -42 301
-318 395 -416 30 -32 120 -126 200 -211 136 -143 284 -298 375 -394 22 -23
108 -113 190 -200 265 -280 271 -286 307 -291 25 -4 41 1 64 18 70 52 455 434
461 457 3 13 0 34 -8 47 -8 13 -220 232 -473 488 -507 515 -495 502 -507 534
-15 38 8 73 115 177 57 55 184 177 281 270 97 94 188 175 203 182 54 23 73 9
274 -200 106 -110 222 -230 258 -267 36 -37 146 -152 245 -255 99 -103 210
-218 246 -256 l66 -68 201 197 c177 173 202 202 213 242 11 44 13 94 5 137 -9
43 -40 88 -116 167 -43 45 -110 115 -150 156 -39 41 -156 162 -258 269 -103
106 -209 217 -237 246 -642 670 -673 701 -725 715 -67 18 -113 18 -156 2z"/>
<path d="M8743 12178 c-62 -58 -186 -178 -335 -325 -126 -123 -127 -126 -20
-236 114 -119 178 -185 377 -392 99 -103 216 -224 260 -270 278 -287 283 -292
263 -345 -5 -12 -41 -54 -81 -92 -39 -39 -166 -161 -280 -272 -115 -110 -218
-206 -230 -212 -11 -7 -34 -10 -51 -7 -33 4 -82 52 -516 503 -107 112 -222
231 -255 265 -33 34 -108 112 -166 172 l-105 110 -105 -99 c-304 -290 -320
-310 -321 -416 -2 -89 25 -128 242 -353 107 -111 224 -232 260 -270 311 -324
456 -473 519 -538 40 -42 141 -147 225 -234 83 -88 169 -171 191 -187 38 -26
115 -50 146 -44 102 17 118 27 248 153 85 82 403 388 552 531 31 30 153 147
270 260 117 113 242 233 278 268 259 249 265 257 265 362 0 102 -7 112 -309
425 -65 68 -363 379 -466 486 -156 163 -413 431 -484 504 -42 44 -125 131
-183 193 -58 61 -112 112 -120 112 -7 0 -38 -24 -69 -52z"/>
<path d="M9427 8214 c-1 -1 -60 -4 -132 -8 -71 -3 -141 -8 -155 -10 -14 -3
-44 -7 -68 -10 -24 -3 -62 -11 -85 -17 -23 -6 -50 -13 -59 -14 -89 -18 -204
-118 -237 -208 -55 -150 -53 -417 4 -554 51 -121 151 -182 345 -210 19 -2 193
-7 385 -9 663 -8 706 -9 750 -28 53 -21 80 -70 77 -137 -2 -63 -14 -85 -60
-108 -72 -36 -133 -41 -517 -42 -316 -2 -413 6 -461 37 -23 16 -44 74 -44 122
l0 30 -257 -1 -258 -2 0 -80 c0 -201 57 -329 171 -388 56 -29 124 -48 219 -63
150 -24 1091 -23 1235 0 14 3 51 7 83 11 194 21 317 104 367 249 29 82 32 102
35 246 8 330 -95 475 -366 514 -81 12 -285 18 -669 21 -223 1 -423 6 -445 10
-100 18 -147 98 -115 192 15 42 72 70 159 81 114 13 698 13 749 -1 62 -17 101
-53 109 -102 3 -22 10 -42 14 -45 4 -3 117 -5 251 -5 l243 0 1 66 c1 59 -5
118 -20 187 -9 40 -59 123 -93 153 -72 62 -199 104 -356 115 -81 5 -794 13
-800 8z"/>
<path d="M197 8202 c-15 -3 -17 -24 -17 -195 l0 -192 619 0 c341 0 617 -3 613
-7 -7 -7 -162 -119 -394 -285 -79 -56 -305 -219 -503 -361 l-360 -259 -3 -199
-2 -199 1027 0 1028 0 1 193 2 192 -42 1 c-22 0 -317 0 -655 0 -346 0 -610 3
-605 8 7 7 262 191 334 241 82 57 295 208 330 234 25 18 174 124 332 236 l286
203 0 193 c0 137 -4 194 -12 195 -36 3 -1965 3 -1979 1z"/>
<path d="M3315 8190 c-7 -8 -26 -39 -41 -68 -16 -29 -33 -61 -39 -70 -9 -15
-60 -105 -105 -187 -9 -16 -46 -82 -82 -145 -36 -63 -76 -135 -90 -160 -14
-25 -137 -243 -273 -485 -282 -499 -314 -558 -315 -565 0 -3 131 -5 291 -5
l290 0 82 152 82 152 545 1 546 0 37 -67 c20 -38 55 -102 78 -143 23 -41 45
-79 50 -85 9 -9 569 -16 569 -7 0 3 -63 120 -148 272 -31 57 -75 137 -120 220
-19 36 -64 116 -98 179 -35 62 -64 115 -64 116 0 2 -48 91 -106 197 -59 106
-127 231 -152 278 -25 47 -48 90 -52 95 -4 6 -22 37 -40 70 -18 33 -49 89 -68
125 -20 36 -44 82 -56 103 -11 20 -27 37 -35 38 -9 0 -164 1 -344 2 -281 2
-330 0 -342 -13z m410 -475 c32 -60 64 -119 70 -130 13 -21 53 -93 118 -215
22 -41 55 -101 73 -133 19 -32 34 -61 34 -65 0 -4 -161 -7 -359 -7 l-359 0 35
65 c20 36 56 103 81 150 149 285 242 453 246 448 2 -2 29 -52 61 -113z"/>
<path d="M5200 8202 l-26 -3 1 -844 c0 -465 2 -846 5 -846 3 -1 119 -2 257 -3
l253 -1 2 215 3 215 470 -1 c465 -1 470 -1 513 -23 69 -35 85 -82 87 -256 2
-77 3 -142 4 -145 0 -3 118 -5 262 -5 l261 0 -4 210 c-5 235 -14 273 -73 343
-19 22 -52 46 -72 55 -43 17 -133 31 -235 37 l-43 2 45 8 c86 15 104 20 160
36 30 10 61 22 69 28 7 6 23 15 34 21 55 27 114 147 132 267 15 96 7 270 -16
378 -32 145 -131 246 -274 279 -79 18 -93 20 -195 27 -92 7 -1570 12 -1620 6z
m1502 -439 c64 -29 81 -64 86 -181 3 -70 0 -103 -12 -135 -34 -90 -62 -94
-625 -94 l-461 -1 0 213 c0 116 2 214 4 216 3 3 220 4 483 4 462 -1 480 -2
525 -22z"/>
<path d="M11044 8201 c-2 -2 -4 -98 -4 -211 l0 -208 377 1 378 0 0 -636 c-1
-350 2 -638 5 -638 3 -1 119 -2 258 -3 l252 -1 1 45 c0 25 0 312 1 638 l0 592
22 1 c11 0 181 1 377 1 l357 1 0 209 c0 148 -4 208 -12 209 -44 3 -2009 3
-2012 0z"/>
<path d="M13913 8202 c-15 -2 -33 -23 -59 -70 -35 -64 -188 -335 -319 -567
-34 -60 -79 -141 -101 -180 -21 -38 -59 -107 -86 -153 -26 -46 -48 -87 -48
-92 0 -5 -3 -10 -7 -12 -5 -1 -15 -16 -24 -33 -9 -16 -85 -152 -169 -302 -84
-149 -153 -275 -154 -280 0 -4 128 -8 286 -8 l288 0 18 25 c10 14 35 59 57
100 21 41 51 98 66 125 l28 50 545 3 545 2 52 -92 c29 -51 66 -118 82 -148 17
-30 32 -57 34 -60 7 -8 563 -6 563 2 0 4 -11 27 -24 50 -13 24 -49 90 -81 148
-60 108 -85 155 -150 275 -52 97 -107 198 -169 308 -13 23 -39 71 -58 107 -57
106 -100 184 -113 205 -6 11 -38 70 -70 130 -32 61 -61 115 -65 120 -4 6 -21
36 -39 68 -17 31 -45 83 -62 115 -18 31 -43 77 -56 102 -14 25 -29 49 -34 54
-8 9 -622 15 -676 8z m397 -507 c29 -55 56 -104 60 -110 4 -5 29 -50 55 -100
26 -49 63 -116 81 -148 19 -32 34 -60 34 -63 0 -2 11 -22 25 -44 14 -22 25
-45 25 -52 0 -10 -73 -13 -347 -12 -192 1 -352 2 -356 3 -4 1 7 29 26 64 19
34 56 103 82 152 27 50 58 108 70 130 12 22 51 94 85 160 87 166 81 157 96
137 6 -9 35 -62 64 -117z"/>
<path d="M15750 8175 c-1 -47 -1 -1617 -1 -1645 l1 -25 838 0 c460 -1 839 3
842 7 5 6 5 386 1 409 0 4 -262 6 -581 5 -509 -1 -580 1 -580 14 -1 8 -1 295
-2 638 l0 622 -27 1 c-14 0 -131 1 -259 2 l-232 2 0 -30z"/>
<path d="M7586 7331 c-1 -3 -2 -100 -2 -216 l1 -210 440 0 440 0 3 216 2 216
-440 0 c-243 0 -442 -3 -444 -6z"/>
<path d="M1486 5469 c-179 -50 -296 -215 -324 -459 -9 -78 -8 -325 1 -390 37
-258 155 -415 346 -460 88 -21 216 -9 293 27 144 68 219 188 263 418 11 54 13
308 4 380 -15 114 -16 122 -34 177 -52 157 -142 259 -270 303 -73 25 -195 27
-279 4z m214 -181 c58 -30 95 -85 119 -178 66 -263 30 -633 -72 -731 -58 -56
-159 -67 -230 -26 -71 42 -107 125 -132 303 -12 84 -4 371 11 395 2 4 6 24 10
45 26 169 163 258 294 192z"/>
<path d="M3643 5479 c-186 -35 -308 -189 -298 -378 5 -117 63 -216 163 -279
26 -17 106 -54 177 -83 201 -81 246 -117 261 -208 8 -53 -17 -121 -57 -155
-83 -70 -243 -60 -323 20 -30 31 -69 102 -79 145 l-7 26 -87 -25 c-49 -13 -92
-28 -96 -32 -11 -10 17 -92 54 -158 77 -137 211 -206 393 -201 180 5 305 72
378 202 77 137 55 328 -49 433 -53 53 -101 81 -253 144 -197 82 -223 98 -253
157 -20 39 -16 99 9 143 53 90 202 105 289 29 19 -17 46 -56 61 -87 15 -31 28
-58 29 -60 1 -1 43 12 94 30 103 36 101 31 54 123 -53 104 -121 167 -218 199
-56 19 -179 27 -242 15z"/>
<path d="M8445 5476 c-116 -27 -206 -96 -266 -202 -19 -32 -33 -61 -32 -64 0
-3 -3 -13 -8 -22 -12 -23 -38 -123 -47 -183 -9 -68 -9 -316 1 -390 16 -115 64
-236 127 -317 46 -60 82 -87 153 -117 55 -23 76 -26 177 -26 105 0 120 2 175
28 113 53 188 152 225 302 12 48 19 89 16 92 -3 3 -17 7 -31 8 -14 2 -42 6
-62 9 -83 14 -103 14 -104 3 -3 -54 -42 -161 -73 -202 -64 -84 -201 -88 -280
-9 -75 76 -106 209 -101 438 1 89 5 172 8 186 3 14 8 40 11 58 36 187 174 286
305 218 52 -28 100 -102 116 -181 5 -22 9 -43 10 -47 2 -5 3 -17 4 -28 0 -11
7 -18 14 -15 12 4 39 8 132 21 28 3 52 8 54 10 8 8 -31 158 -55 212 -64 146
-181 221 -349 227 -38 1 -93 -3 -120 -9z"/>
<path d="M11241 5473 c-182 -46 -287 -191 -276 -380 5 -78 38 -155 94 -216 43
-46 135 -97 260 -144 89 -33 182 -81 205 -107 60 -67 59 -168 -2 -234 -45 -48
-101 -66 -187 -59 -68 5 -112 24 -150 65 -29 30 -69 103 -78 143 l-7 27 -77
-24 c-43 -13 -86 -24 -96 -24 -16 0 -18 -5 -12 -32 12 -57 73 -172 114 -215
88 -91 189 -125 352 -119 189 8 302 76 372 224 29 61 32 76 32 162 0 81 -4
103 -26 151 -30 63 -90 127 -154 165 -24 14 -94 46 -156 70 -131 53 -195 85
-225 111 -75 66 -62 191 26 246 27 17 50 22 100 22 101 -1 150 -35 197 -135
14 -30 27 -56 28 -57 0 -2 42 12 92 29 l91 31 -13 37 c-51 143 -152 240 -280
265 -68 14 -168 13 -224 -2z"/>
<path d="M14789 5486 c-2 -2 -23 -6 -46 -10 -110 -15 -223 -103 -281 -218 -35
-71 -69 -195 -77 -283 -6 -75 -7 -249 -1 -295 19 -144 20 -146 46 -224 25 -77
83 -170 131 -210 19 -16 63 -43 99 -60 59 -28 74 -31 165 -31 120 0 160 7 224
40 170 85 262 318 256 643 -7 324 -86 511 -254 601 -34 18 -61 30 -61 26 0 -3
-9 -1 -20 5 -18 10 -173 23 -181 16z m116 -187 c108 -30 163 -169 171 -429 7
-234 -24 -403 -89 -476 -48 -56 -111 -75 -195 -60 -122 22 -186 191 -186 486
2 374 101 534 299 479z"/>
<path d="M257 5462 c-16 -3 -17 -51 -15 -645 l3 -642 105 0 105 0 0 210 c1
222 1 222 52 285 7 8 29 40 50 69 21 30 43 54 48 52 6 -2 61 -116 122 -254 62
-139 123 -272 135 -297 12 -25 22 -49 22 -55 1 -6 49 -11 119 -12 l118 -3 -7
23 c-7 23 -53 122 -152 327 -87 182 -171 357 -199 418 l-24 53 123 175 c68 96
142 201 165 234 26 36 37 60 30 62 -20 6 -203 1 -215 -6 -5 -3 -52 -72 -103
-153 -51 -82 -111 -177 -134 -213 -23 -36 -59 -93 -81 -128 -75 -122 -69 -139
-69 197 0 197 -3 301 -10 302 -37 3 -175 3 -188 1z"/>
<path d="M2288 5462 c-14 -3 -16 -74 -15 -647 l0 -643 91 1 91 2 0 497 c0 273
2 498 5 501 3 3 48 -88 100 -202 51 -113 111 -242 132 -286 21 -44 82 -177
136 -295 l99 -215 101 -3 102 -3 -2 647 -3 647 -65 0 c-36 -1 -75 -1 -87 -2
l-23 -1 -2 -457 -3 -456 -74 164 c-79 175 -123 271 -177 386 -19 40 -34 75
-34 77 0 5 -104 230 -122 265 -12 23 -17 24 -124 25 -61 1 -118 0 -126 -2z"/>
<path d="M4234 5459 c-4 -7 -7 -83 -5 -141 l1 -37 141 -3 142 -3 1 -550 1
-550 107 -2 107 -2 0 492 c0 271 0 520 1 555 l0 62 144 0 144 0 0 90 c-1 85
-2 90 -22 91 -108 4 -759 3 -762 -2z"/>
<path d="M5127 5462 c-16 -3 -17 -53 -17 -647 l0 -644 108 0 107 1 0 266 0
267 99 0 99 0 27 -75 c15 -41 30 -84 35 -95 4 -11 21 -56 37 -100 16 -44 33
-89 38 -100 5 -11 21 -53 36 -92 l27 -73 114 0 c62 0 113 4 113 8 0 5 -53 136
-119 292 l-119 283 37 24 c42 28 97 86 116 122 53 104 55 282 4 382 -49 97
-144 159 -264 174 -59 8 -446 13 -478 7z m463 -185 c50 -22 81 -59 95 -114 28
-111 -11 -218 -96 -261 -36 -18 -63 -22 -139 -23 -52 -1 -102 -1 -111 0 -14 1
-16 26 -16 204 0 111 4 204 8 207 18 12 225 1 259 -13z"/>
<path d="M6118 5459 c-12 -8 -15 -866 -4 -964 22 -193 97 -287 261 -330 68
-17 188 -20 266 -5 144 27 256 133 274 261 3 24 9 58 12 74 3 17 6 239 7 494
2 436 1 464 -16 470 -17 6 -167 6 -173 -1 -2 -2 -5 -224 -7 -493 -3 -489 -3
-490 -26 -537 -14 -28 -38 -56 -58 -69 -67 -41 -189 -39 -255 5 -38 24 -67 85
-75 156 -4 36 -7 262 -7 503 0 240 -3 437 -6 438 -33 4 -185 3 -193 -2z"/>
<path d="M7170 4818 l0 -646 108 -1 108 0 -2 207 -1 207 53 80 c29 44 64 94
78 110 l25 30 21 -50 c30 -68 93 -206 195 -430 17 -38 40 -89 50 -112 l18 -42
114 0 c119 0 128 3 99 44 -7 11 -14 22 -13 25 0 7 -31 73 -235 500 -33 69 -73
153 -89 188 l-29 63 164 232 c90 128 162 234 160 235 -1 2 -51 5 -111 5 l-108
2 -40 -60 c-21 -33 -44 -68 -50 -77 -16 -29 -133 -213 -178 -283 -23 -35 -58
-89 -76 -120 -19 -30 -37 -55 -40 -55 -4 0 -6 133 -6 295 1 197 -3 295 -10
296 -5 0 -54 1 -108 2 l-97 2 0 -647z"/>
<path d="M9284 5455 c-2 -5 -5 -235 -6 -510 -3 -462 -4 -503 -21 -537 -33 -65
-121 -89 -234 -64 l-33 8 0 -91 c0 -50 3 -91 8 -92 4 0 21 -4 37 -7 17 -4 78
-7 136 -7 98 0 110 2 165 30 85 44 125 107 149 235 9 47 15 1040 7 1041 -53 6
-205 2 -208 -6z"/>
<path d="M9739 5435 c-1 -39 -1 -1213 0 -1242 l1 -22 373 2 372 2 2 88 3 87
-269 0 -268 0 0 200 -1 200 207 0 207 0 0 85 c0 47 -2 86 -5 86 -4 1 -91 3
-196 4 -104 2 -195 3 -202 4 -9 1 -12 48 -11 181 l1 180 262 0 263 0 0 85 c-1
71 -3 85 -17 86 -9 0 -175 1 -368 2 l-353 2 -1 -30z"/>
<path d="M11850 5373 l0 -93 143 0 142 0 -1 -554 -2 -554 108 -1 108 0 0 517
c0 284 1 534 1 555 l1 37 144 0 144 0 -2 92 -1 91 -393 1 -392 1 0 -92z"/>
<path d="M12925 5460 c-2 -3 -20 -62 -40 -130 -68 -233 -177 -605 -182 -625
-3 -11 -26 -90 -50 -175 -75 -259 -94 -324 -98 -342 -3 -15 8 -17 99 -17 l103
0 38 157 c21 86 39 159 41 161 3 3 374 9 374 6 0 0 14 -54 31 -120 16 -66 32
-127 34 -135 2 -8 6 -27 10 -42 l7 -27 109 0 c60 1 109 2 109 3 0 1 -29 110
-64 242 -223 834 -278 1039 -282 1043 -6 6 -235 7 -239 1z m154 -440 c11 -36
82 -328 85 -344 1 -10 -259 -15 -274 -6 -5 3 5 59 22 125 16 66 31 125 32 130
13 53 60 242 72 290 6 26 10 19 30 -65 13 -52 28 -111 33 -130z"/>
<path d="M13647 5458 c-7 -4 -10 -196 -9 -620 0 -337 1 -625 1 -640 l1 -26
335 -1 335 -1 0 93 0 92 -227 0 -228 0 0 552 c0 485 -2 553 -15 554 -70 4
-184 3 -193 -3z"/>
<path d="M15397 5462 c-10 -2 -15 -7 -13 -10 2 -4 7 -27 11 -52 4 -25 8 -47
10 -51 2 -3 6 -19 9 -35 3 -16 19 -94 36 -174 17 -80 34 -156 36 -170 3 -14 9
-41 14 -60 5 -19 11 -47 14 -61 2 -15 16 -83 31 -150 14 -68 42 -198 62 -289
19 -91 39 -182 44 -202 l10 -38 99 0 c55 0 100 2 100 5 0 3 11 57 25 120 13
62 26 124 29 137 6 35 31 153 74 353 22 99 45 210 53 247 7 37 14 67 15 65 3
-2 50 -209 58 -252 4 -18 68 -319 102 -475 8 -36 16 -76 19 -90 23 -119 12
-110 126 -110 72 0 99 3 100 13 2 25 8 56 48 247 23 107 43 204 45 215 3 11
14 63 25 115 11 52 22 106 25 120 6 34 56 270 62 295 3 11 7 31 10 45 3 14 12
59 20 100 9 41 18 86 20 99 3 13 6 28 7 34 2 10 -169 15 -179 5 -3 -3 -7 -18
-10 -34 -9 -58 -45 -250 -54 -294 -5 -25 -12 -58 -15 -75 -8 -47 -33 -178 -38
-200 -3 -11 -17 -87 -32 -170 -15 -82 -33 -154 -39 -160 -6 -5 -8 -6 -4 -2 3
5 0 32 -7 60 -8 29 -16 69 -19 89 -3 20 -15 77 -25 125 -11 48 -32 147 -46
218 -14 72 -37 182 -51 245 -14 63 -28 133 -31 155 -3 22 -7 42 -9 44 -3 3
-68 4 -149 2 l-41 -1 -14 -62 c-7 -35 -15 -72 -17 -83 -3 -17 -22 -108 -29
-140 -1 -5 -11 -55 -23 -110 -11 -55 -32 -154 -47 -220 -14 -66 -27 -129 -29
-140 -16 -98 -43 -206 -45 -185 -4 37 -15 100 -27 155 -3 17 -7 37 -8 45 -1 8
-4 29 -8 45 -4 17 -9 50 -13 75 -3 24 -7 47 -10 51 -2 3 -6 24 -9 45 -6 41 -8
55 -19 114 -4 19 -11 60 -16 90 -6 30 -12 66 -15 80 -5 24 -14 72 -21 115 -17
98 -27 125 -42 126 -50 3 -171 4 -185 1z"/>
<path d="M16860 5462 c-7 -3 -10 -227 -10 -647 l0 -644 375 0 375 1 0 89 0 89
-265 0 -265 0 -1 38 c-1 44 -1 246 0 315 l1 47 204 0 204 0 -2 88 -1 87 -197
0 c-108 0 -200 3 -203 7 -6 5 -9 228 -6 331 l1 27 260 0 260 0 1 23 c1 24 1
113 0 137 -1 13 -48 15 -361 15 -198 0 -365 -1 -370 -3z"/>
</g>
</svg>
